#N canvas 156 47 945 921 10;
#X obj 93 184 soundfiler;
#X obj 91 8 loadbang;
#N canvas 0 22 450 300 (subpatch) 0;
#X array kickL 10293 float 2;
#X coords 0 1 10293 -1 200 140 1;
#X restore 49 258 graph;
#N canvas 0 22 450 300 (subpatch) 0;
#X array kickR 10293 float 2;
#X coords 0 1 10293 -1 200 140 1;
#X restore 264 258 graph;
#N canvas 0 22 450 300 (subpatch) 0;
#X array snareL 25805 float 2;
#X coords 0 1 25805 -1 200 140 1;
#X restore 55 424 graph;
#N canvas 0 22 450 300 (subpatch) 0;
#X array snareR 25805 float 2;
#X coords 0 1 25805 -1 200 140 1;
#X restore 271 425 graph;
#N canvas 0 22 450 300 (subpatch) 0;
#X array snapL 5306 float 2;
#X coords 0 1 5306 -1 200 140 1;
#X restore 60 590 graph;
#N canvas 0 22 450 300 (subpatch) 0;
#X array snapR 5306 float 2;
#X coords 0 1 5306 -1 200 140 1;
#X restore 275 593 graph;
#X msg 172 62 read -resize samples/kick1.aif kickL kickR;
#X msg 172 88 read -resize samples/rimshot.aif snareL snareR;
#X msg 171 115 read -resize samples/cowbell.aif snapL snapR;
#N canvas 0 0 450 300 (subpatch) 0;
#X array huhL 59206 float 2;
#X coords 0 1 59206 -1 200 140 1;
#X restore 61 753 graph;
#N canvas 0 0 450 300 (subpatch) 0;
#X array huhR 59206 float 2;
#X coords 0 1 59206 -1 200 140 1;
#X restore 275 754 graph;
#X msg 171 143 read -resize samples/huh.aif huhL huhR;
#X connect 1 0 8 0;
#X connect 1 0 9 0;
#X connect 1 0 10 0;
#X connect 1 0 13 0;
#X connect 8 0 0 0;
#X connect 9 0 0 0;
#X connect 10 0 0 0;
#X connect 13 0 0 0;
