#N canvas 2076 120 620 460 10;
#X obj 199 79 adc~;
#X obj 200 178 dac~;
#X obj 199 121 eigendrums;
#X msg 291 154 forget;
#X msg 291 109 learn 0;
#X msg 290 64 learn 10;
#X text 370 60;
#X obj 254 179 bng 15 250 50 0 empty empty empty 17 7 0 10 -262144
-1 -1;
#X connect 0 0 2 0;
#X connect 0 1 2 0;
#X connect 2 0 1 0;
#X connect 2 1 1 1;
#X connect 2 2 7 0;
#X connect 3 0 2 1;
#X connect 4 0 2 1;
#X connect 5 0 2 1;
