#N canvas 394 127 693 464 10;
#X obj 59 188 vline~;
#X obj 119 289 *~;
#X obj 135 188 vline~;
#X obj 72 329 outlet~;
#X obj 141 11 inlet;
#X obj 85 42 bng 15 250 50 0 empty empty empty 17 7 0 10 -262144 -1
-1;
#X obj 233 186 vline~;
#X obj 289 286 *~;
#X obj 304 184 vline~;
#X obj 252 330 outlet~;
#X obj 59 249 tabread4~ \$1L;
#X obj 233 249 tabread4~ \$1R;
#X msg 66 81 1 \, 4.41e+08 1e+07;
#X obj 279 50 unpack f;
#X obj 284 98 / 100;
#X connect 0 0 10 0;
#X connect 1 0 3 0;
#X connect 2 0 1 1;
#X connect 4 0 5 0;
#X connect 4 0 13 0;
#X connect 5 0 12 0;
#X connect 6 0 11 0;
#X connect 7 0 9 0;
#X connect 8 0 7 1;
#X connect 10 0 1 0;
#X connect 11 0 7 0;
#X connect 12 0 0 0;
#X connect 12 0 6 0;
#X connect 13 0 14 0;
#X connect 14 0 8 0;
#X connect 14 0 2 0;
